<svg xmlns="http://www.w3.org/2000/svg" viewBox="0 0 24 24">
                            <defs>
                                <linearGradient id="grad1" x1="0%" y1="0%" x2="100%" y2="0%">
                                    <stop offset="0%" style="stop-color:#ff0058;stop-opacity:1" />
                                    <stop offset="100%" style="stop-color:#ff0058;stop-opacity:1" />
                                </linearGradient>
                            </defs>
                            <defs>
                                <linearGradient id="grad2" x1="0%" y1="0%" x2="100%" y2="0%">
                                    <stop offset="0%" style="stop-color:#ff0058;stop-opacity:1" />
                                    <stop offset="100%" style="stop-color:#ffbc00;stop-opacity:1" />
                                </linearGradient>
                            </defs>
                            <defs>
                                <linearGradient id="grad3" x1="0%" y1="0%" x2="100%" y2="0%">
                                    <stop offset="0%" style="stop-color:#4dff03;stop-opacity:1" />
                                    <stop offset="100%" style="stop-color:#03a9f4;stop-opacity:1" />
                                </linearGradient>
                            </defs>
                            <defs>
                                <linearGradient id="grad4" x1="0%" y1="50%" x2="100%" y2="0%">
                                    <stop offset="0%" style="stop-color:#03a9f4;stop-opacity:1" />
                                    <stop offset="100%" style="stop-color:#4dff03;stop-opacity:1" />
                                </linearGradient>
                            </defs>
                            <defs>
                                <linearGradient id="grad5" x1="0%" y1="0%" x2="100%" y2="0%">
                                    <stop offset="0%" style="stop-color:#ffbc00;stop-opacity:1" />
                                    <stop offset="100%" style="stop-color:#ff0058;stop-opacity:1" />
                                </linearGradient>
                            </defs>
                            <g>
                                <path fill="none" d="M0 0h24v24H0z" />
                                <path fill="url(#grad1)"
                                    d="M12 14v2a6 6 0 0 0-6 6H4a8 8 0 0 1 8-8zm0-1c-3.315 0-6-2.685-6-6s2.685-6 6-6 6 2.685 6 6-2.685 6-6 6zm0-2c2.21 0 4-1.79 4-4s-1.79-4-4-4-4 1.79-4 4 1.79 4 4 4zm9.446 9.032l1.504 1.504-1.414 1.414-1.504-1.504a4 4 0 1 1 1.414-1.414zM18 20a2 2 0 1 0 0-4 2 2 0 0 0 0 4z" />
                            </g>
                        </svg>